<?xml version="1.0" encoding="utf-8"?>
<!-- Generator: Adobe Illustrator 17.1.0, SVG Export Plug-In . SVG Version: 6.00 Build 0)  -->
<!DOCTYPE svg PUBLIC "-//W3C//DTD SVG 1.1//EN" "http://www.w3.org/Graphics/SVG/1.1/DTD/svg11.dtd" [
	<!ENTITY ns_extend "http://ns.adobe.com/Extensibility/1.0/">
	<!ENTITY ns_ai "http://ns.adobe.com/AdobeIllustrator/10.0/">
	<!ENTITY ns_graphs "http://ns.adobe.com/Graphs/1.0/">
	<!ENTITY ns_vars "http://ns.adobe.com/Variables/1.0/">
	<!ENTITY ns_imrep "http://ns.adobe.com/ImageReplacement/1.0/">
	<!ENTITY ns_sfw "http://ns.adobe.com/SaveForWeb/1.0/">
	<!ENTITY ns_custom "http://ns.adobe.com/GenericCustomNamespace/1.0/">
	<!ENTITY ns_adobe_xpath "http://ns.adobe.com/XPath/1.0/">
]>
<svg version="1.1" id="Ebene_1" xmlns:x="&ns_extend;" xmlns:i="&ns_ai;" xmlns:graph="&ns_graphs;"
	 xmlns="http://www.w3.org/2000/svg" xmlns:xlink="http://www.w3.org/1999/xlink" x="0px" y="0px" viewBox="0 0 134 40"
	 enable-background="new 0 0 134 40" xml:space="preserve">
<metadata>
	<sfw  xmlns="&ns_sfw;">
		<slices></slices>
		<sliceSourceBounds  width="126" height="11" bottomLeftOrigin="true" x="4.7" y="-26.2"></sliceSourceBounds>
		<optimizationSettings>
			<targetSettings  fileFormat="PNG24Format" targetSettingsID="0">
				<PNG24Format  transparency="true" noMatteColor="false" interlaced="false" matteColor="#FFFFFF" filtered="false">
					</PNG24Format>
			</targetSettings>
		</optimizationSettings>
	</sfw>
</metadata>
<g>
	<path fill="#FFFFFF" d="M4.7,26V15.3h4.5c3.4,0,5.8,2,5.8,5.3c0,3.3-2.4,5.3-5.8,5.3H4.7z M12.1,20.6c0-1.6-1-2.9-2.9-2.9H7.4v5.9
		h1.7C11,23.6,12.1,22.2,12.1,20.6z"/>
	<path fill="#FFFFFF" d="M23.4,26l-0.5-1.5h-4.2L18.2,26h-3.1l4-10.7h3.5l4,10.7H23.4z M20.8,18l-1.4,4h2.7L20.8,18z"/>
	<path fill="#FFFFFF" d="M26.7,20.6c0-3.3,2.5-5.5,5.8-5.5c2.6,0,4,1.5,4.7,2.8l-2.4,1.1c-0.4-0.8-1.3-1.6-2.3-1.6
		c-1.7,0-3,1.3-3,3.1c0,1.7,1.2,3.1,3,3.1c1,0,1.9-0.7,2.3-1.6l2.4,1.1c-0.7,1.4-2.1,2.9-4.7,2.9C29.2,26.2,26.7,23.9,26.7,20.6z"/>
	<path fill="#FFFFFF" d="M37.9,24.5l1.5-2.1c0.8,0.8,2,1.4,3.4,1.4c0.9,0,1.5-0.3,1.5-0.8c0-1.4-6-0.2-6-4.4c0-1.8,1.5-3.4,4.2-3.4
		c1.7,0,3.2,0.5,4.3,1.5l-1.5,2.1c-0.9-0.8-2.1-1.1-3.1-1.1c-0.8,0-1.2,0.3-1.2,0.7c0,1.3,6,0.3,6,4.3c0,2.1-1.6,3.6-4.5,3.6
		C40.5,26.2,39,25.5,37.9,24.5z"/>
	<path opacity="0.5" fill="#FFFFFF" d="M49.1,21.8v-6.5h1.3v6.5c0,2,1,3.2,3,3.2c2,0,3-1.2,3-3.2v-6.5h1.3v6.5
		c0,2.7-1.5,4.4-4.4,4.4C50.6,26.2,49.1,24.4,49.1,21.8z"/>
	<path opacity="0.5" fill="#FFFFFF" d="M68.3,26L62,17.4V26h-1.3V15.3h1.4l6.1,8.3v-8.3h1.3V26H68.3z"/>
	<path opacity="0.5" fill="#FFFFFF" d="M72.3,26V15.3h1.3v9.5h5V26H72.3z"/>
	<path opacity="0.5" fill="#FFFFFF" d="M80.7,26V15.3h1.3V26H80.7z"/>
	<path opacity="0.5" fill="#FFFFFF" d="M94.1,26v-9l-3.6,9h-0.5l-3.6-9v9h-1.3V15.3h1.9l3.3,8.2l3.3-8.2h1.9V26H94.1z"/>
	<path opacity="0.5" fill="#FFFFFF" d="M98.3,26V15.3h1.3V26H98.3z"/>
	<path opacity="0.5" fill="#FFFFFF" d="M105.2,26v-9.5h-3.4v-1.2h8.1v1.2h-3.4V26H105.2z"/>
	<path opacity="0.5" fill="#FFFFFF" d="M112,26V15.3h7v1.2h-5.7v3.4h5.6v1.2h-5.6v3.7h5.7V26H112z"/>
	<path opacity="0.5" fill="#FFFFFF" d="M121.5,26V15.3h3.6c3.3,0,5.5,2.3,5.5,5.3c0,3-2.1,5.3-5.5,5.3H121.5z M129.3,20.6
		c0-2.3-1.5-4.2-4.1-4.2h-2.3v8.3h2.3C127.8,24.8,129.3,22.9,129.3,20.6z"/>
</g>
</svg>
